<svg width="224" height="46" viewBox="0 0 224 46" fill="none" xmlns="http://www.w3.org/2000/svg">
<path opacity="0.6" d="M7.88672 4.9375V22H6.45703V4.9375H7.88672ZM13.7344 4.9375V6.17969H0.621094V4.9375H13.7344ZM27.9844 12.5898V13.8203H17.6133V12.5898H27.9844ZM17.9531 4.9375V22H16.5117V4.9375H17.9531ZM29.1445 4.9375V22H27.7031V4.9375H29.1445ZM44.1094 20.7695V22H34.5117V20.7695H44.1094ZM34.9453 4.9375V22H33.5039V4.9375H34.9453ZM42.9141 12.5898V13.8203H34.5117V12.5898H42.9141ZM44.0508 4.9375V6.17969H34.5117V4.9375H44.0508Z" fill="black"/>
<path d="M66.7969 12.0625V14.3945H57.7383V12.0625H66.7969ZM58.4648 4.9375V22H55.5234V4.9375H58.4648ZM69.0586 4.9375V22H66.1289V4.9375H69.0586ZM82.1367 4.9375H85.0664V16.3398C85.0664 17.6367 84.7852 18.7227 84.2227 19.5977C83.6602 20.4727 82.8945 21.1328 81.9258 21.5781C80.9648 22.0156 79.8906 22.2344 78.7031 22.2344C77.4766 22.2344 76.3828 22.0156 75.4219 21.5781C74.4609 21.1328 73.7031 20.4727 73.1484 19.5977C72.6016 18.7227 72.3281 17.6367 72.3281 16.3398V4.9375H75.2578V16.3398C75.2578 17.1602 75.3984 17.8359 75.6797 18.3672C75.9609 18.8906 76.3594 19.2773 76.875 19.5273C77.3906 19.7773 78 19.9023 78.7031 19.9023C79.4062 19.9023 80.0117 19.7773 80.5195 19.5273C81.0352 19.2773 81.4336 18.8906 81.7148 18.3672C81.9961 17.8359 82.1367 17.1602 82.1367 16.3398V4.9375ZM90.5039 4.9375L94.125 11.1602L97.7461 4.9375H101.133L95.9766 13.3867L101.262 22H97.8398L94.125 15.6602L90.4102 22H86.9766L92.2734 13.3867L87.1055 4.9375H90.5039ZM114.117 19.668V22H105.551V19.668H114.117ZM106.371 4.9375V22H103.43V4.9375H106.371ZM127.559 19.668V22H118.5V19.668H127.559ZM119.332 4.9375V22H116.391V4.9375H119.332ZM126.375 12.0625V14.3594H118.5V12.0625H126.375ZM127.5 4.9375V7.28125H118.5V4.9375H127.5ZM131.59 4.9375L135.551 13.082L139.512 4.9375H142.77L137.027 15.7188V22H134.062V15.7188L128.32 4.9375H131.59ZM161.883 12.0625V14.3945H152.824V12.0625H161.883ZM153.551 4.9375V22H150.609V4.9375H153.551ZM164.145 4.9375V22H161.215V4.9375H164.145ZM181.254 13V13.9375C181.254 15.2266 181.086 16.3828 180.75 17.4062C180.414 18.4297 179.934 19.3008 179.309 20.0195C178.691 20.7383 177.949 21.2891 177.082 21.6719C176.215 22.0469 175.254 22.2344 174.199 22.2344C173.152 22.2344 172.195 22.0469 171.328 21.6719C170.469 21.2891 169.723 20.7383 169.09 20.0195C168.457 19.3008 167.965 18.4297 167.613 17.4062C167.27 16.3828 167.098 15.2266 167.098 13.9375V13C167.098 11.7109 167.27 10.5586 167.613 9.54297C167.957 8.51953 168.441 7.64844 169.066 6.92969C169.699 6.20312 170.445 5.65234 171.305 5.27734C172.172 4.89453 173.129 4.70312 174.176 4.70312C175.23 4.70312 176.191 4.89453 177.059 5.27734C177.926 5.65234 178.672 6.20312 179.297 6.92969C179.922 7.64844 180.402 8.51953 180.738 9.54297C181.082 10.5586 181.254 11.7109 181.254 13ZM178.312 13.9375V12.9766C178.312 12.0234 178.219 11.1836 178.031 10.457C177.852 9.72266 177.582 9.10938 177.223 8.61719C176.871 8.11719 176.438 7.74219 175.922 7.49219C175.406 7.23438 174.824 7.10547 174.176 7.10547C173.527 7.10547 172.949 7.23438 172.441 7.49219C171.934 7.74219 171.5 8.11719 171.141 8.61719C170.789 9.10938 170.52 9.72266 170.332 10.457C170.145 11.1836 170.051 12.0234 170.051 12.9766V13.9375C170.051 14.8906 170.145 15.7344 170.332 16.4688C170.52 17.2031 170.793 17.8242 171.152 18.332C171.52 18.832 171.957 19.2109 172.465 19.4688C172.973 19.7188 173.551 19.8438 174.199 19.8438C174.855 19.8438 175.438 19.7188 175.945 19.4688C176.453 19.2109 176.883 18.832 177.234 18.332C177.586 17.8242 177.852 17.2031 178.031 16.4688C178.219 15.7344 178.312 14.8906 178.312 13.9375ZM190.629 4.9375V22H187.711V4.9375H190.629ZM195.984 4.9375V7.28125H182.402V4.9375H195.984ZM209.402 19.668V22H200.344V19.668H209.402ZM201.176 4.9375V22H198.234V4.9375H201.176ZM208.219 12.0625V14.3594H200.344V12.0625H208.219ZM209.344 4.9375V7.28125H200.344V4.9375H209.344ZM222.492 19.668V22H213.926V19.668H222.492ZM214.746 4.9375V22H211.805V4.9375H214.746Z" fill="black"/>
<path opacity="0.6" d="M6.45361 31.3359V42H5.55273V31.3359H6.45361ZM5.40625 29.5269C5.40625 29.3657 5.45752 29.229 5.56006 29.1167C5.66748 28.9995 5.81641 28.9409 6.00684 28.9409C6.19238 28.9409 6.33887 28.9995 6.44629 29.1167C6.55859 29.229 6.61475 29.3657 6.61475 29.5269C6.61475 29.6929 6.55859 29.832 6.44629 29.9443C6.33887 30.0566 6.19238 30.1128 6.00684 30.1128C5.81641 30.1128 5.66748 30.0566 5.56006 29.9443C5.45752 29.832 5.40625 29.6929 5.40625 29.5269ZM15.3892 39.3779C15.3892 39.085 15.3403 38.8237 15.2427 38.5942C15.145 38.3647 14.9839 38.1597 14.7593 37.979C14.5396 37.7935 14.2417 37.6226 13.8657 37.4663C13.4946 37.3052 13.0308 37.1465 12.4741 36.9902C11.9419 36.8389 11.4609 36.6729 11.0312 36.4922C10.6016 36.3115 10.2329 36.104 9.92529 35.8696C9.62256 35.6353 9.39062 35.3618 9.22949 35.0493C9.06836 34.7319 8.98779 34.3633 8.98779 33.9434C8.98779 33.5332 9.07568 33.1597 9.25146 32.8228C9.42725 32.4858 9.67383 32.1953 9.99121 31.9512C10.3135 31.707 10.6919 31.519 11.1265 31.3872C11.5659 31.2554 12.0469 31.1895 12.5693 31.1895C13.3164 31.1895 13.9609 31.3311 14.5029 31.6143C15.0498 31.8975 15.4722 32.2808 15.77 32.7642C16.0728 33.2427 16.2241 33.7798 16.2241 34.3755H15.3232C15.3232 33.9116 15.2134 33.499 14.9937 33.1377C14.7788 32.7715 14.4663 32.4858 14.0562 32.2808C13.6509 32.0708 13.1553 31.9658 12.5693 31.9658C11.9834 31.9658 11.4902 32.0562 11.0898 32.2368C10.6943 32.4126 10.394 32.6494 10.189 32.9473C9.98877 33.2402 9.88867 33.5674 9.88867 33.9287C9.88867 34.1826 9.9375 34.417 10.0352 34.6318C10.1328 34.8418 10.2915 35.0396 10.5112 35.2251C10.7358 35.4058 11.0312 35.5767 11.3975 35.7378C11.7637 35.894 12.2153 36.043 12.7524 36.1846C13.3188 36.3408 13.8218 36.5142 14.2612 36.7046C14.7007 36.895 15.0718 37.1147 15.3745 37.3638C15.6772 37.6079 15.9067 37.8936 16.063 38.2207C16.2192 38.5479 16.2974 38.9287 16.2974 39.3633C16.2974 39.7979 16.2046 40.1885 16.019 40.5352C15.8384 40.877 15.582 41.1675 15.25 41.4067C14.9229 41.646 14.5347 41.8291 14.0854 41.9561C13.6411 42.083 13.1553 42.1465 12.6279 42.1465C12.1543 42.1465 11.6831 42.0854 11.2144 41.9634C10.7456 41.8413 10.3159 41.6533 9.92529 41.3994C9.53955 41.1406 9.22949 40.8086 8.99512 40.4033C8.76562 39.998 8.65088 39.5146 8.65088 38.9531H9.54443C9.54443 39.4023 9.63477 39.7808 9.81543 40.0884C9.99609 40.396 10.2354 40.645 10.5332 40.8354C10.8359 41.0259 11.168 41.165 11.5293 41.2529C11.8955 41.3359 12.2617 41.3774 12.6279 41.3774C13.1895 41.3774 13.6753 41.2944 14.0854 41.1284C14.5005 40.9624 14.8203 40.7305 15.0449 40.4326C15.2744 40.1299 15.3892 39.7783 15.3892 39.3779ZM21.8198 31.3359V42H20.9263V31.3359H21.8198ZM25.4746 31.3359V32.1123H17.2788V31.3359H25.4746ZM30.1255 31.9731L26.4341 42H25.4966L29.5249 31.3359H30.1768L30.1255 31.9731ZM33.48 42L29.7812 31.9731L29.73 31.3359H30.3818L34.4175 42H33.48ZM32.8208 38.2354V39.0117H27.1592V38.2354H32.8208ZM43.939 31.3359V42H43.0308L36.9004 32.8887V42H35.9995V31.3359H36.9004L43.0454 40.4473V31.3359H43.939ZM50.333 36.873H47.3301L47.3154 36.1113H49.9009C50.4282 36.1113 50.8774 36.0356 51.2485 35.8843C51.6196 35.7329 51.9004 35.5083 52.0908 35.2104C52.2861 34.9077 52.3838 34.5366 52.3838 34.0972C52.3838 33.6479 52.2886 33.2769 52.0981 32.9839C51.9077 32.686 51.6221 32.4663 51.2412 32.3247C50.8604 32.1831 50.3818 32.1123 49.8057 32.1123H47.5645V42H46.6636V31.3359H49.8057C50.3477 31.3359 50.8335 31.3896 51.2632 31.4971C51.6929 31.6045 52.0591 31.7729 52.3618 32.0024C52.6646 32.2319 52.894 32.5225 53.0503 32.874C53.2114 33.2207 53.292 33.6357 53.292 34.1191C53.292 34.5586 53.1943 34.9565 52.999 35.313C52.8037 35.6646 52.5278 35.9526 52.1714 36.1772C51.8198 36.397 51.3975 36.5337 50.9043 36.5874L50.333 36.873ZM50.2671 42H47.0444L47.5059 41.231H50.2671C50.7944 41.231 51.2437 41.1431 51.6147 40.9673C51.9907 40.7866 52.2788 40.5303 52.479 40.1982C52.6792 39.8662 52.7793 39.4707 52.7793 39.0117C52.7793 38.6064 52.6914 38.2427 52.5156 37.9204C52.3398 37.5981 52.0713 37.3442 51.71 37.1587C51.3486 36.9683 50.8896 36.873 50.333 36.873H48.4653L48.48 36.1113H51.124L51.2852 36.3823C51.7637 36.4312 52.1812 36.5801 52.5376 36.8291C52.8989 37.0732 53.1772 37.3833 53.3726 37.7593C53.5728 38.1353 53.6729 38.5479 53.6729 38.9971C53.6729 39.6416 53.5288 40.1885 53.2407 40.6377C52.9575 41.082 52.5596 41.4214 52.0469 41.6558C51.5391 41.8853 50.9458 42 50.2671 42ZM62.3008 31.3359H63.2017V38.5576C63.2017 39.3584 63.0332 40.0249 62.6963 40.5571C62.3594 41.0894 61.9053 41.4873 61.334 41.751C60.7676 42.0146 60.1401 42.1465 59.4517 42.1465C58.7437 42.1465 58.1064 42.0146 57.54 41.751C56.9736 41.4873 56.5244 41.0894 56.1924 40.5571C55.8652 40.0249 55.7017 39.3584 55.7017 38.5576V31.3359H56.5952V38.5576C56.5952 39.1777 56.7173 39.6978 56.9614 40.1177C57.2056 40.5376 57.5425 40.8525 57.9722 41.0625C58.4019 41.2725 58.895 41.3774 59.4517 41.3774C60.0034 41.3774 60.4941 41.2725 60.9238 41.0625C61.3535 40.8525 61.6904 40.5376 61.9346 40.1177C62.1787 39.6978 62.3008 39.1777 62.3008 38.5576V31.3359ZM71.9028 41.231V42H66.373V41.231H71.9028ZM66.6367 31.3359V42H65.7358V31.3359H66.6367Z" fill="black"/>
</svg>
